<?xml version="1.0" encoding="UTF-8"?>
<svg width="36px" height="36px" viewBox="0 0 36 36" version="1.1" xmlns="http://www.w3.org/2000/svg" xmlns:xlink="http://www.w3.org/1999/xlink">
    <!-- Generator: Sketch 49.3 (51167) - http://www.bohemiancoding.com/sketch -->
    <title>Group 5</title>
    <desc>Created with Sketch.</desc>
    <defs></defs>
    <g id="Page-1" stroke="none" stroke-width="1" fill="none" fill-rule="evenodd">
        <g id="Desktop-HD" transform="translate(-1366.000000, -299.000000)">
            <g id="Group" transform="translate(1191.000000, 292.000000)">
                <g id="Group-5" transform="translate(175.000000, 7.000000)">
                    <g id="Group-3">
                        <circle id="Oval" fill="#E7E7E7" cx="18" cy="18" r="18"></circle>
                        <path d="M28.9250368,25.9155764 L27.1211969,22.8933098 C26.2896322,21.4983528 25.8496845,19.9016837 25.8496845,18.2743741 L25.8496845,15.6269703 C25.8496845,11.5518901 22.5517744,8.235 18.5000128,8.235 C14.4482511,8.235 11.150341,11.5518901 11.150341,15.6269703 L11.150341,18.2743741 C11.150341,19.9016837 10.7103933,21.4983528 9.87882858,22.8933098 L8.07498872,25.9155764 C7.97734286,26.0781836 7.97522654,26.2820243 8.06765543,26.44676 C8.16111787,26.6125352 8.33642762,26.715 8.5254196,26.715 L28.4745567,26.715 C28.6635487,26.715 28.8389076,26.6125847 28.9323209,26.44676 C29.0247498,26.2819748 29.0226827,26.0781836 28.9250368,25.9155764 Z" id="Shape" fill="#4B53FF" fill-rule="nonzero"></path>
                    </g>
                    <path d="M18.5,4 C17.3418426,4 16.4,5.00464 16.4,6.2400175 L16.4,8.480035 C16.4,8.7891025 16.6352146,9.04 16.9250123,9.04 C17.21481,9.04 17.4500246,8.7891025 17.4500246,8.4799825 L17.4500246,6.2400175 C17.4500246,5.6217775 17.9204045,5.120035 18.5,5.120035 C19.0795955,5.120035 19.5499754,5.6217775 19.5499754,6.2400175 L19.5499754,8.480035 C19.5499754,8.7891025 19.78519,9.04 20.0749877,9.04 C20.3647854,9.04 20.6,8.7891025 20.6,8.4799825 L20.6,6.2400175 C20.6,5.00464 19.6581574,4 18.5,4 Z" id="Shape" fill="#4B53FF" fill-rule="nonzero"></path>
                    <path d="M20.2594186,26.1337549 C20.1173483,25.8838336 19.8100174,25.8019212 19.5692347,25.9457601 C19.3284048,26.0927987 19.2478291,26.415181 19.3888603,26.6651023 C19.5198313,26.8972038 19.591386,27.1754794 19.591386,27.4495708 C19.591386,28.3180683 18.9132932,29.0248086 18.08,29.0248086 C17.2467068,29.0248086 16.568614,28.3180683 16.568614,27.4495708 C16.568614,27.1754794 16.6401687,26.8972038 16.7711397,26.6651023 C16.9111791,26.414098 16.8306033,26.0927495 16.5907653,25.9457601 C16.3479516,25.801872 16.0416126,25.8837843 15.9005814,26.1337549 C15.6778881,26.5307148 15.56,26.9854171 15.56,27.44962 C15.5600472,28.8977558 16.6895249,30.075 18.0790082,30.075 C19.4684914,30.075 20.5979691,28.8977558 20.6,27.44962 C20.6,26.9854171 20.4821119,26.5307148 20.2594186,26.1337549 Z" id="Shape" fill="#4B53FF" fill-rule="nonzero"></path>
                </g>
            </g>
        </g>
    </g>
</svg>