<?xml version="1.0" encoding="UTF-8"?>
<svg width="36px" height="36px" viewBox="0 0 36 36" version="1.1" xmlns="http://www.w3.org/2000/svg" xmlns:xlink="http://www.w3.org/1999/xlink">
    <!-- Generator: Sketch 49.3 (51167) - http://www.bohemiancoding.com/sketch -->
    <title>Group 6</title>
    <desc>Created with Sketch.</desc>
    <defs></defs>
    <g id="Page-1" stroke="none" stroke-width="1" fill="none" fill-rule="evenodd">
        <g id="Desktop-HD" transform="translate(-1191.000000, -299.000000)">
            <g id="Group" transform="translate(1191.000000, 292.000000)">
                <g id="Group-6" transform="translate(0.000000, 7.000000)">
                    <g id="Group-4">
                        <circle id="Oval" fill="#E7E7E7" cx="18" cy="18" r="18"></circle>
                        <g id="settings" transform="translate(6.000000, 6.000000)" fill="#4B53FF" fill-rule="nonzero">
                            <path d="M22.7644444,9.33333333 L20.5191111,9.33333333 C20.1582222,9.33333333 19.8608889,9.13466667 19.7226667,8.80133333 C19.5844444,8.468 19.6546667,8.11688889 19.9093333,7.86177778 L21.4968889,6.27466667 C21.7302222,6.04133333 21.8586667,5.73066667 21.8586667,5.40088889 C21.8586667,5.07066667 21.7302222,4.76044444 21.4968889,4.52666667 L19.4733333,2.50311111 C19.0066667,2.03644444 18.1928889,2.03555556 17.7253333,2.50311111 L16.1382222,4.09022222 C15.8831111,4.34488889 15.5311111,4.416 15.1986667,4.27733333 C14.8653333,4.13911111 14.6666667,3.84177778 14.6666667,3.48088889 L14.6666667,1.23555556 C14.6666667,0.554222222 14.1124444,0 13.4311111,0 L10.5688889,0 C9.88755556,0 9.33333333,0.554222222 9.33333333,1.23555556 L9.33333333,3.48088889 C9.33333333,3.84177778 9.13466667,4.13911111 8.80133333,4.27733333 C8.46888889,4.41644444 8.11688889,4.34488889 7.86177778,4.09022222 L6.27466667,2.50311111 C5.80711111,2.03555556 4.99333333,2.03644444 4.52666667,2.50311111 L2.50311111,4.52666667 C2.26977778,4.76 2.14133333,5.07066667 2.14133333,5.40088889 C2.14133333,5.73066667 2.26977778,6.04088889 2.50311111,6.27466667 L4.09066667,7.86177778 C4.34533333,8.11688889 4.41511111,8.468 4.27733333,8.80133333 C4.13955556,9.13466667 3.84177778,9.33333333 3.48088889,9.33333333 L1.23555556,9.33333333 C0.554222222,9.33333333 0,9.88755556 0,10.5688889 L0,13.4306667 C0,14.1124444 0.554222222,14.6666667 1.23555556,14.6666667 L3.48088889,14.6666667 C3.84177778,14.6666667 4.13911111,14.8653333 4.27733333,15.1986667 C4.41555556,15.532 4.34533333,15.8831111 4.09066667,16.1382222 L2.50311111,17.7253333 C2.26977778,17.9586667 2.14133333,18.2693333 2.14133333,18.5991111 C2.14133333,18.9293333 2.26977778,19.2395556 2.50311111,19.4733333 L4.52666667,21.4968889 C4.99377778,21.964 5.80711111,21.9648889 6.27466667,21.4968889 L7.86177778,19.9093333 C8.11688889,19.6546667 8.46755556,19.5844444 8.80133333,19.7226667 C9.13466667,19.8608889 9.33333333,20.1582222 9.33333333,20.5191111 L9.33333333,22.7644444 C9.33333333,23.4457778 9.88755556,24 10.5688889,24 L13.4306667,24 C14.112,24 14.6662222,23.4457778 14.6662222,22.7644444 L14.6662222,20.5191111 C14.6662222,20.1582222 14.8648889,19.8608889 15.1982222,19.7226667 C15.532,19.584 15.8826667,19.6546667 16.1377778,19.9093333 L17.7248889,21.4968889 C18.1924444,21.9644444 19.0062222,21.9635556 19.4728889,21.4968889 L21.4964444,19.4733333 C21.7297778,19.24 21.8582222,18.9293333 21.8582222,18.5991111 C21.8582222,18.2693333 21.7297778,17.9591111 21.4964444,17.7253333 L19.9088889,16.1382222 C19.6542222,15.8831111 19.5844444,15.532 19.7222222,15.1986667 C19.86,14.8653333 20.1582222,14.6666667 20.5191111,14.6666667 L22.7644444,14.6666667 C23.4457778,14.6666667 24,14.1124444 24,13.4311111 L24,10.5688889 C24,9.88755556 23.4457778,9.33333333 22.7644444,9.33333333 Z" id="Shape"></path>
                            <path d="M12,8 C9.79422222,8 8,9.79422222 8,12 C8,14.2057778 9.79422222,16 12,16 C14.2057778,16 16,14.2057778 16,12 C16,9.79422222 14.2057778,8 12,8 Z M12,15 C10.3461429,15 9,13.6538571 9,12 C9,10.3461429 10.3461429,9 12,9 C13.6538571,9 15,10.3461429 15,12 C15,13.6538571 13.6538571,15 12,15 Z" id="Shape"></path>
                        </g>
                    </g>
                    <circle id="Oval-2" fill="#D8D8D8" cx="18" cy="18" r="3"></circle>
                </g>
            </g>
        </g>
    </g>
</svg>