<?xml version="1.0" encoding="UTF-8"?>
<svg width="36px" height="36px" viewBox="0 0 36 36" version="1.1" xmlns="http://www.w3.org/2000/svg" xmlns:xlink="http://www.w3.org/1999/xlink">
    <!-- Generator: Sketch 49.3 (51167) - http://www.bohemiancoding.com/sketch -->
    <title>Group 7</title>
    <desc>Created with Sketch.</desc>
    <defs></defs>
    <g id="Page-1" stroke="none" stroke-width="1" fill="none" fill-rule="evenodd">
        <g id="Desktop-HD" transform="translate(-1279.000000, -299.000000)">
            <g id="Group" transform="translate(1191.000000, 292.000000)">
                <g id="Group-7" transform="translate(88.000000, 7.000000)">
                    <circle id="Oval" fill="#E7E7E7" cx="18" cy="18" r="18"></circle>
                    <g id="envelope" transform="translate(7.000000, 9.000000)" fill="#4B53FF" fill-rule="nonzero">
                        <path d="M2.11156587,5.32835681 C2.38986291,5.52474775 3.22875303,6.10802929 4.62827925,7.0779004 C6.02784847,8.04777151 7.10001446,8.79454732 7.84482024,9.31827084 C7.92664954,9.37567875 8.10049919,9.50047107 8.36645518,9.69281981 C8.63245418,9.88529756 8.853475,10.0408364 9.02934565,10.1594794 C9.20534531,10.2780794 9.4181101,10.4111282 9.66785503,10.5584106 C9.91751397,10.7055641 10.1528538,10.8162517 10.3738317,10.8895274 C10.5948525,10.9634051 10.7994473,11 10.987659,11 L11,11 L11.012384,11 C11.2005957,11 11.4052765,10.9633621 11.6262973,10.8895274 C11.8471892,10.8162517 12.082744,10.7054351 12.332188,10.5584106 C12.5817609,10.4109562 12.7945257,10.2780364 12.9705253,10.1594794 C13.146525,10.0408364 13.3673738,9.88529756 13.6334588,9.69281981 C13.8993718,9.50029906 14.0734365,9.37567875 14.1552658,9.31827084 C14.9081126,8.79454732 16.8234687,7.46444697 19.9007322,5.3280988 C20.4981764,4.91084867 20.9973223,4.40737917 21.3982988,3.81803433 C21.7995763,3.2289475 22,2.61096321 22,1.96442547 C22,1.42414611 21.8055103,0.961657695 21.4167028,0.577003217 C21.0279384,0.192262735 20.5674927,0 20.0356667,0 L1.96420432,0 C1.33403697,0 0.849081165,0.212774774 0.509422899,0.638324322 C0.169807633,1.06395988 0,1.59598281 0,2.23435014 C0,2.74998925 0.225148839,3.30875954 0.675231517,3.910317 C1.12527119,4.51191747 1.60420698,4.9846404 2.11156587,5.32835681 Z" id="Shape"></path>
                        <path d="M20.7721328,6.60341665 C18.0878961,8.48039776 16.0496925,9.93912186 14.658511,10.979278 C14.1920032,11.3342744 13.8135595,11.6113947 13.522922,11.8099724 C13.2322845,12.0086833 12.8457568,12.2116146 12.3627799,12.4186774 C11.8799751,12.6260511 11.4300223,12.729427 11.0125345,12.729427 L11.0000215,12.729427 L10.9876805,12.729427 C10.5702787,12.729427 10.1200679,12.6260511 9.63726308,12.4186774 C9.15445823,12.2116146 8.76767254,12.0086833 8.47712103,11.8099724 C8.18665551,11.6113947 7.80808284,11.3342744 7.34161801,10.979278 C6.23664506,10.1422308 4.20282745,8.6834179 1.2400792,6.60341665 C0.773442371,6.2823161 0.360125638,5.91425881 0,5.5 L0,15.5703762 C0,16.1287926 0.192253341,16.606312 0.576975023,17.0037339 C0.961610705,17.401289 1.42411952,17.6 1.96432948,17.6 L20.0357995,17.6 C20.5758805,17.6 21.0383463,17.401289 21.423025,17.0037339 C21.8078327,16.6061787 22,16.128837 22,15.5703762 L22,5.5 C21.6480014,5.90568487 21.2388987,6.27374216 20.7721328,6.60341665 Z" id="Shape"></path>
                    </g>
                </g>
            </g>
        </g>
    </g>
</svg>